<svg width="17" height="29" viewBox="0 0 17 29" fill="none" xmlns="http://www.w3.org/2000/svg">
<path d="M16.8927 10.2741C17.0043 10.149 17.0314 9.96926 16.962 9.8164C16.8927 9.66355 16.7387 9.56528 16.5704 9.56528H10.8845C10.7948 9.56528 10.712 9.51657 10.668 9.43846C10.624 9.36035 10.6265 9.26461 10.6747 9.18902L15.7188 1.14222C15.8634 0.912099 15.871 0.621503 15.7374 0.38466C15.6046 0.146977 15.3526 0 15.0794 0H8.20686C7.92523 0 7.66643 0.157056 7.53703 0.405657L0.0318904 14.9161C-0.0137798 15.0043 -0.0103968 15.1109 0.0420394 15.1966C0.0953213 15.2823 0.188353 15.3343 0.288997 15.3343H4.98288C5.12581 15.3343 5.25944 15.4049 5.33979 15.5233C5.41929 15.6409 5.43536 15.7904 5.38123 15.9223L0.109699 28.8185C0.0851723 28.8781 0.108008 28.947 0.162981 28.9806C0.217955 29.0142 0.289843 29.0032 0.332976 28.9554L16.8927 10.2741Z" fill="white"/>
</svg>
