<svg width="18" height="15" viewBox="0 0 18 15" fill="none" xmlns="http://www.w3.org/2000/svg">
<path d="M10.3633 10.0703C10.3633 8.58594 10.5977 7.33594 11.0664 6.32031C11.5352 5.28516 12.1602 4.36719 12.9414 3.56641C13.3906 3.11719 13.8398 2.72656 14.2891 2.39453C14.7383 2.04297 15.1289 1.75977 15.4609 1.54492C15.8516 1.29102 16.2324 1.08594 16.6035 0.929688L17.8047 2.13086C17.4727 2.3457 17.1504 2.56055 16.8379 2.77539C16.5645 2.9707 16.2812 3.19531 15.9883 3.44922C15.6953 3.68359 15.4414 3.9082 15.2266 4.12305C14.7188 4.63086 14.2988 5.20703 13.9668 5.85156C13.6348 6.47656 13.4883 7.19922 13.5273 8.01953C13.5664 8.01953 13.625 8.00977 13.7031 7.99023C13.7617 7.99023 13.8398 7.99023 13.9375 7.99023C14.0352 7.9707 14.1426 7.96094 14.2598 7.96094C14.709 7.96094 15.1289 8.05859 15.5195 8.25391C15.9297 8.42969 16.2812 8.67383 16.5742 8.98633C16.8867 9.29883 17.1309 9.66992 17.3066 10.0996C17.4824 10.5098 17.5703 10.9395 17.5703 11.3887C17.5703 11.8574 17.4824 12.2969 17.3066 12.707C17.1309 13.1172 16.8867 13.4785 16.5742 13.791C16.2617 14.084 15.8906 14.3184 15.4609 14.4941C15.0508 14.6504 14.6113 14.7285 14.1426 14.7285C13.6543 14.7285 13.1855 14.6504 12.7363 14.4941C12.2871 14.3379 11.8867 14.0742 11.5352 13.7031C11.1836 13.332 10.9004 12.8535 10.6855 12.2676C10.4707 11.6621 10.3633 10.9297 10.3633 10.0703ZM0.871094 10.0703C0.871094 8.58594 1.10547 7.33594 1.57422 6.32031C2.04297 5.28516 2.66797 4.36719 3.44922 3.56641C3.91797 3.11719 4.36719 2.72656 4.79688 2.39453C5.24609 2.04297 5.63672 1.75977 5.96875 1.54492C6.35938 1.29102 6.74023 1.08594 7.11133 0.929688L8.3125 2.13086C8 2.3457 7.6875 2.56055 7.375 2.77539C7.10156 2.9707 6.80859 3.19531 6.49609 3.44922C6.20312 3.68359 5.94922 3.9082 5.73438 4.12305C5.22656 4.63086 4.80664 5.20703 4.47461 5.85156C4.16211 6.47656 4.02539 7.19922 4.06445 8.01953C4.10352 8.01953 4.16211 8.00977 4.24023 7.99023C4.29883 7.99023 4.36719 7.99023 4.44531 7.99023C4.54297 7.9707 4.65039 7.96094 4.76758 7.96094C5.2168 7.96094 5.63672 8.05859 6.02734 8.25391C6.4375 8.42969 6.78906 8.67383 7.08203 8.98633C7.39453 9.29883 7.63867 9.66992 7.81445 10.0996C7.99023 10.5098 8.07812 10.9395 8.07812 11.3887C8.07812 11.8574 7.99023 12.2969 7.81445 12.707C7.63867 13.1172 7.39453 13.4785 7.08203 13.791C6.76953 14.084 6.4082 14.3184 5.99805 14.4941C5.58789 14.6504 5.13867 14.7285 4.65039 14.7285C4.18164 14.7285 3.71289 14.6504 3.24414 14.4941C2.79492 14.3379 2.39453 14.0742 2.04297 13.7031C1.69141 13.332 1.4082 12.8535 1.19336 12.2676C0.978516 11.6621 0.871094 10.9297 0.871094 10.0703Z" fill="white"/>
</svg>
