<svg width="76" height="76" viewBox="0 0 76 76" fill="none" xmlns="http://www.w3.org/2000/svg">
<path d="M37.9998 17.4795C33.1851 17.4795 29.2656 21.399 29.2656 26.2185C29.2656 31.0379 33.1851 34.9574 37.9998 34.9574C42.8146 34.9574 46.7385 31.0379 46.7385 26.2185C46.7385 21.3991 42.8146 17.4795 37.9998 17.4795Z" fill="#AA2834"/>
<path d="M64.2069 26.2182L58.7935 20.6473L60.7003 13.1098L53.2231 10.99L51.1035 3.51275L43.5752 5.41454L37.9998 0.00146484L32.4291 5.41468L24.9009 3.5129L22.7765 10.9901L15.304 13.11L17.2104 20.6475L11.7927 26.2183L17.2104 31.7938L15.304 39.3313L22.7765 41.4465L24.9009 48.9238L32.4291 47.0266L37.9998 52.4354L43.5752 47.0266L51.1035 48.9238L53.2234 41.4465L60.7003 39.3313L58.7938 31.7938L64.2069 26.2182ZM37.9998 40.7879C29.9706 40.7879 23.4443 34.2521 23.4443 26.2182C23.4443 18.1843 29.9705 11.6534 37.9998 11.6534C46.0288 11.6534 52.5597 18.1843 52.5597 26.2182C52.5597 34.2521 46.0288 40.7879 37.9998 40.7879Z" fill="#AA2834"/>
<path d="M42.0584 56.6194L37.9998 60.5619L33.9457 56.6194L30.7035 53.4697L29.2656 53.8315V75.9988L37.9998 67.7469L46.7385 75.9988V53.8315L45.2961 53.4697L42.0584 56.6194Z" fill="#AA2834"/>
</svg>
